<?xml version="1.0" encoding="utf-8"?>

<!DOCTYPE svg PUBLIC "-//W3C//DTD SVG 1.1//EN" "http://www.w3.org/Graphics/SVG/1.1/DTD/svg11.dtd">
<svg version="1.1" id="Layer_1" xmlns="http://www.w3.org/2000/svg" xmlns:xlink="http://www.w3.org/1999/xlink" x="0px" y="0px"
	 viewBox="0 0 1280 995" enable-background="new 0 0 1280 995" xml:space="preserve">
<rect fill="#80D2DC" width="1280" height="995"/>
<g>
	<path fill="#313131" stroke="#313131" stroke-width="0.2" d="M1018.55,127.38c14.52-1.45,29.02,0.64,43.42,2.41
		c15.89,2.52,31.49,6.58,46.8101,11.45c3.83,1.34,7.4399,3.24,11.22,4.71c17.47,6.83,33.48,17.15,47.42,29.65
		c11.61,10.28,20.23,23.31,28.9099,36.03c5.4801,8.43,11.13,17.25,12.5601,27.41c1.4399,10.29,4,20.51,3.58,30.96
		c0.1901,11.68-2.3199,23.13-3.9199,34.63c-2.55,12.53-5.53,25.17-11.3301,36.66c-3.72,7.85-7.46,15.7-11.5599,23.36
		c-8.64,18.22-20.6901,34.46-31.9501,51.09c-4.86,6.69-8.51,14.17-13.6799,20.65c-8.85-4.26-17.4601-8.98-26.3101-13.23
		c-5.24-2.88-10.9399-5.42-14.9099-10.05c9.47-9.01,19.85-17.78,25.2999-29.99c5.79-10.65,7.4301-23.16,5.8101-35.09
		c-1.6001-11.81-11.24-20.46-21.38-25.56c-10.76-5.45-23.66-6.11-35.02-2.16c-10.7001,2.75-19.25,11.14-24.2001,20.77
		c-5.6799-1-10.97-3.44-15.73-6.65c-3.47-2.38-7.64-3.73-10.6899-6.68c-0.73-1.45-0.33-3.13-0.34-4.67
		c1.33-16.52-0.99-33.15,1.25-49.63c-4.48-0.81-8.81-2.26-12.88-4.26c-5.24-2.54-11.08-3.45-16.39-5.75
		c-1.74-0.61-1.5099-2.69-2.0099-4.11c5.91-3.17,11.77-6.48,16.81-10.96c-9.56-1.33-19.23-0.91-28.82-1.68
		c-14.63-1.49-29.36-0.03-44.01-1.07c8.16-10.25,17.02-19.91,26.5-28.95c-3.86,1.51-7.5,3.56-11.52,4.64
		c-6.05,1.56-11.52,4.69-17.34,6.87c-10.73,4.05-20.95,9.87-32.35,11.8c-7.8-0.61-15.88-2.56-21.81-7.96
		c-12.37-9.56-16.64-26-16.86-40.97c-0.16-14.16,2.47-29.29,11.98-40.34c2,5.43,1.95,11.85,5.69,16.51
		c4.77,3.85,10.98,6.43,17.21,5.93c3.93-0.28,7.86-0.81,11.74-1.57c7.82-1.61,14.81-5.63,22.01-8.89
		c6.95-4.8,14.16-9.21,21.39-13.58c10.0099-6.02,21.11-9.81,31.93-14.06C995.88,131.2,1007.07,128.18,1018.55,127.38z"/>
	<path fill="#4D403B" stroke="#4D403B" stroke-width="0.2" d="M248.16,145.21c8.63-1.56,17.41-1.85,26.13-2.64
		c9.57-0.83,19.17-0.12,28.71,0.73c24.04,2.66,46.28,13.39,66.38,26.35c16.19,11.17,31.93,23.1,46.06,36.81
		c6.81,8.07,11.65,17.6,16.05,27.15c4.85,10.61,6.07,22.31,8.22,33.65c1.59,8.89,2.37,17.88,3.29,26.85c0.46,4.39-1.4,8.53-2,12.81
		c-1.17,7.74-2.66,15.52-5.7,22.78c-9.48,1.34-18.6,4.48-28.15,5.44c-14.85,3.1-30.07,1.25-45.04,0.19
		c-11.38-0.66-22.71-2.12-33.88-4.37c3.83-7.26,7.65-14.58,10.39-22.34c2.87-8.33,6.88-16.35,8.08-25.17
		c-4.08,3.68-7.43,8.03-11.1,12.09c-9.5,10.17-18.71,20.77-29.92,29.14c-5.97,4.42-11.91,9.06-18.71,12.15
		c-4.57-3.98-8.32-8.88-13.18-12.53c-9.43-6-20.33-10.6-31.69-10.15c-10.8,2.01-21.81,8.16-26.36,18.62
		c-5.26,9.41-5.46,20.61-4.51,31.07c2.25,11.76,9.36,21.61,15.19,31.8c-16.81,5.61-31.76,15.26-47.47,23.24
		c-7.66,3.68-14.69,8.49-22.2,12.43c-2.32-7.88-8.53-13.58-12.43-20.61c-8.3-14.42-17.43-28.37-24.56-43.42
		c-3.62-8.43-5.45-17.49-9.1-25.9c-10.1-28.76-7.13-61.04,5-88.72c3.01-6.79,5.9-13.71,10.13-19.87c5.95-9.9,12.2-19.63,19.04-28.94
		c4-5.6,9.14-10.24,14.09-14.97c14.43-12.23,29.71-23.71,46.69-32.16c6.21-2.48,12.12-5.73,18.61-7.46
		C232.01,146.91,240.19,146.64,248.16,145.21z"/>
	<path fill="#FBDCCE" stroke="#FBDCCE" stroke-width="0.2" d="M951.49,221.31c4.02-1.08,7.66-3.13,11.52-4.64
		c-9.48,9.04-18.34,18.7-26.5,28.95c14.65,1.04,29.38-0.42,44.01,1.07c9.59,0.77,19.26,0.35,28.82,1.68
		c-5.04,4.48-10.9,7.79-16.81,10.96c0.5,1.42,0.27,3.5,2.0099,4.11c5.31,2.3,11.15,3.21,16.39,5.75c4.07,2,8.4,3.45,12.88,4.26
		c-2.24,16.48,0.08,33.11-1.25,49.63c0.01,1.54-0.39,3.22,0.34,4.67c3.0499,2.95,7.22,4.3,10.6899,6.68
		c4.76,3.21,10.05,5.65,15.73,6.65c4.9501-9.63,13.5-18.02,24.2001-20.77c11.36-3.95,24.26-3.29,35.02,2.16
		c10.14,5.1,19.7799,13.75,21.38,25.56c1.62,11.93-0.02,24.44-5.8101,35.09c-5.45,12.21-15.83,20.98-25.2999,29.99
		c3.97,4.63,9.6699,7.17,14.9099,10.05c8.85,4.25,17.4601,8.97,26.3101,13.23c-2.52,10.61-0.88,21.69,1.48,32.18
		c1.95,6.92,3.5699,14.32,8.17,20.05c-6.04,6.59-14.4501,9.96-22.26,13.89c-9.88,5.13-20.3101,9.07-30.54,13.39
		c-9.23,3.08-17.89,8.13-27.75,8.95c-2.86-7.43-7.35-14.05-10.91-21.13c-4.38-7.47-8.0599-15.55-14.09-21.87
		c-1.25-1.54-3.34-1.31-5.08-1.18c-18.0601,2.17-36.36,0.98-54.34-1.4c-12.83-1.77-25.41-5.32-37.15-10.82
		c-7.16-3.38-14.83-5.97-21.21-10.79c-10.29-8.26-19.2599-18.54-24.04-30.98c-3.2-5.87-1.49-12.57-0.62-18.78
		c0.85-8.64,1.48-17.3,2.42-25.93c0.66-8.27,2.08-16.64,0.64-24.91c-0.81-5.37-4.48-9.66-6.04-14.77
		c-6.33-21.83-6.41-44.78-5.81-67.31c0.48-12.14,4.2599-23.86,8.9-35c11.4-1.93,21.62-7.75,32.35-11.8
		C939.97,226,945.44,222.87,951.49,221.31z"/>
	<path fill="#F8C5B0" stroke="#F8C5B0" stroke-width="0.2" d="M335.6,295.54c3.67-4.06,7.02-8.41,11.1-12.09
		c-1.2,8.82-5.21,16.84-8.08,25.17c-2.74,7.76-6.56,15.08-10.39,22.34c11.17,2.25,22.5,3.71,33.88,4.37
		c14.97,1.06,30.19,2.91,45.04-0.19c9.55-0.96,18.67-4.1,28.15-5.44c-4.48,16.18-13.98,30.19-21.45,45.04
		c-2.67,5.55-7.57,9.83-9.33,15.84c-1.62,5.12-3.04,10.32-4.35,15.53c-2.69,12.83-6.49,25.45-11.46,37.58
		c-2.82,7.03-7.89,12.76-11.76,19.19c-1.87,3.07-4,6.01-6.74,8.37c-10.24,8.62-21.41,16.6-34.35,20.56
		c-11.34,3.37-22.97,6.86-34.94,6.11c-15.8-1.01-31.47-3.98-46.73-8.13c-3.61-0.94-7.16-2.38-10.92-2.52
		c-2.89,1.35-4.46,4.33-6.11,6.9c-5.16,8.92-9.66,18.29-12.39,28.26c-6.15-2.7-12.11-5.81-17.79-9.4
		c-9.89-6.33-20.05-12.33-29-20.01c-7.19-6.2-15.66-10.9-22.26-17.78c-1.94-1.65-1.2-4.28-0.79-6.42
		c3.32-12.16,4.37-25.1,1.82-37.51c7.51-3.94,14.54-8.75,22.2-12.43c15.71-7.98,30.66-17.63,47.47-23.24
		c-5.83-10.19-12.94-20.04-15.19-31.8c-0.95-10.46-0.75-21.66,4.51-31.07c4.55-10.46,15.56-16.61,26.36-18.62
		c11.36-0.45,22.26,4.15,31.69,10.15c4.86,3.65,8.61,8.55,13.18,12.53c6.8-3.09,12.74-7.73,18.71-12.15
		C316.89,316.31,326.1,305.71,335.6,295.54z"/>
	<path fill="#FFFFFF" stroke="#FFFFFF" stroke-width="0.2" d="M149.42,469.36c1.81-0.39,3.67-0.42,5.51-0.54
		c-0.41,2.14-1.15,4.77,0.79,6.42c6.6,6.88,15.07,11.58,22.26,17.78c8.95,7.68,19.11,13.68,29,20.01c5.68,3.59,11.64,6.7,17.79,9.4
		c7.07,3.51,14.58,6.01,21.74,9.35c-3.68,5.59-8.32,10.47-12.01,16.04c-6.45-2.97-13.65-3.96-19.87-7.45
		c-16.93-9.83-34.27-19.17-49.73-31.27c-9.14-7.71-18.43-16.08-23.35-27.23C144.17,477.71,145.89,472.87,149.42,469.36z"/>
	<path fill="#F7A38F" stroke="#F7A38F" stroke-width="0.2" d="M93.14,561.08c14.54-27.35,33.35-52.15,48.41-79.21
		c4.92,11.15,14.21,19.52,23.35,27.23c15.46,12.1,32.8,21.44,49.73,31.27c6.22,3.49,13.42,4.48,19.87,7.45
		c-4.59,8.18-9.93,15.89-14.47,24.1c5.44,6.7,10.04,14.13,12.6,22.43c3.78,12.14,8.05,24.22,10.18,36.79
		c3.22,25.04,8.72,49.72,14.66,74.24c1.95,6.54,3.95,13.11,6.83,19.32c1.9,4.2,5.62,7.16,9.49,9.48
		c6.97,4.21,14.06,8.26,21.53,11.53c15.47,6.48,30.48,14.06,46.23,19.89c9.59,3.77,19.43,6.84,29.32,9.71
		c7.62,2.62,15.44,4.56,23.25,6.5c0.6,6.41,2.18,12.77,1.6,19.25c-0.49,13.56-6.03,26.17-11.16,38.51
		c-3.84,8.57-7.47,17.64-14.55,24.12c-18.19-2.18-36.12-6.04-54.12-9.32c-18.06-3.92-36.19-7.75-53.74-13.61
		c-7.25-2.33-14.8-3.5-22.27-4.9c0.72,16.2,4.93,32.14,11.34,47c5.32,12.21,11.26,24.17,18.26,35.51
		c-17.93,25.59-36.16,50.97-53.99,76.63H89.24c-11.22-25.09-19.07-51.52-26.17-78.02c-5.97-22.42-12.42-44.82-15.23-67.92
		c-1.26-11.75-3.89-23.32-4.54-35.14c-1.01-15.75-2.95-31.54-1.82-47.34c-0.02-12.48-0.56-25.09,1.65-37.44
		c2.42-13.43,3.86-27.03,6.64-40.4c2.88-17.08,7.49-33.82,12.62-50.35c7.24-20.1,15.01-40.01,21.95-60.22
		C86.36,572.04,89.94,566.64,93.14,561.08z"/>
	<path fill="#FFFFFF" stroke="#FFFFFF" stroke-width="0.2" d="M1127.42,502.51c7.8099-3.93,16.22-7.3,22.26-13.89
		c2.23,2.55,4.0699,5.45,5.0399,8.72c2.77,8.53,6.76,16.58,10.6801,24.63c-5.65,2.4901-11.48,4.6-16.9301,7.5
		c-8.22,4.85-16.9099,8.89-24.85,14.2c-15.01,11.01-30.5,22.09-41.5,37.39c-6.6,8.47-11.59,18.05-16.33,27.65
		c-3,7.65-6.79,14.96-10.02,22.5c0.01-3.47-0.5601-6.9-1.26-10.28c-0.42-8.29-0.04-16.6,0.09-24.89c0.16-2.2599,0.34-4.52,0.53-6.77
		c3.1-1.91,5.4301-4.72,7.49-7.67c3.27-4.66,7.45-8.56,11.71-12.28c1.3401-1.19,3.1001-1.68,4.7301-2.37
		c-2.5801-10.58-6.55-20.8-8.5-31.54c-0.7001-3.58-2.02-6.99-3.3701-10.36c0.4801-0.05,1.4501-0.15,1.9401-0.2
		c9.86-0.8199,18.52-5.87,27.75-8.95C1107.11,511.58,1117.54,507.64,1127.42,502.51z"/>
	<path fill="#F23F42" stroke="#F23F42" stroke-width="0.2" d="M1056.47,520.26c4.38-1.95,7.13,3.25,10.72,4.79
		c1.3501,3.37,2.67,6.78,3.3701,10.36c1.95,10.7401,5.9199,20.96,8.5,31.54c-1.63,0.69-3.39,1.18-4.7301,2.37
		c-4.26,3.72-8.4399,7.62-11.71,12.28c-2.0599,2.95-4.39,5.76-7.49,7.67c-0.1901,2.25-0.37,4.51-0.53,6.77
		c-1.23,2.46-1.8099,5.18-1.6699,7.94c0.1599,5.67-0.77,11.59,1.58,16.95c0.7,3.38,1.27,6.81,1.26,10.28
		c-5.98,16.2599-10.97,32.99-12.7001,50.29c-8.6-5.59-16.7599-11.81-25.1899-17.64c0.25-4.4,1.51-8.63,2.22-12.95
		c2.58-23.1299,5.42-47.12,17.0801-67.73c1.0199-2.36,3.85-2.06,5.96-2.56c0.47-4.88,0.62-9.77,0.8099-14.66
		c0.4501-11.05,4.2001-21.55,6.9501-32.16C1052.38,529.17,1053.45,524.17,1056.47,520.26z"/>
	<path fill="#315385" stroke="#315385" stroke-width="0.2" d="M1148.47,529.47c5.4501-2.9,11.28-5.0099,16.9301-7.5
		c8.1899,15.17,15.9399,30.61,23.09,46.3c6.9,19.47,14.6,38.67,20.74,58.41c6.03,19.5,12.22,38.96,17.42,58.69
		c2.11,8.45,3.34,17.09,5.45,25.53c3.64,13.73,2.62,28.05,2.91,42.1c0.7,24-1.5,48.07-6.52,71.55
		c-5.3199,29.26-11.72,58.42-21.23,86.63c-6.86,21.43-16.45,41.82-24.23,62.91c-2.77,7.08-5.4401,14.2599-9.1801,20.91h-113.36
		c-3.86-7.08-8.95-13.36-13.51-19.98c-23.43-33.3-47.07-66.46-70.42-99.81c8.04-8.86,14.68-18.9,20.32-29.43
		c4.7-7.8,7.08-16.65,9.73-25.28c2.94-8.56,4.65-17.46,6.77-26.23c1.85-7.42,2.09-15.14,4.32-22.46c-2.03-2.15-4.09-4.28-6.26-6.26
		c-6.83-6.35-14.84-11.18-22.44-16.51c-11.03-7.71-21.97-15.56-33.39-22.68c1.23-1.37,2.62-2.71,3.17-4.52
		c7.71-22.65,14.5-45.81,26.04-66.9c1.55-2.9,3.71-5.4,5.72-7.98c10.14,3.69,18.51,10.9,27.34,16.9
		c8.4301,5.83,16.59,12.05,25.1899,17.64c1.7301-17.3,6.7201-34.03,12.7001-50.29c3.23-7.54,7.02-14.85,10.02-22.5
		c4.74-9.6,9.73-19.18,16.33-27.65c11-15.3,26.49-26.38,41.5-37.39C1131.5601,538.36,1140.25,534.32,1148.47,529.47z"/>
	<path fill="#F3C1AD" stroke="#F3C1AD" stroke-width="0.2" d="M782.26,535.16c8.77-4.94,18.8-6.93,28.71-8.0099
		c15.16-1.13,30.08,4.8199,41.94,13.98c3.66,2.82,5.34,7.28,7.48,11.21c-4.15,3.52-9.06,7.66-8.94,13.6299
		c0.09,7,2.82,14.7401,9.21,18.3701c6.03,3.97,13.15,5.78,20.29,6.33c0,3.8-0.6,8.17-4.21,10.28c-4.09,0.2-7.81-1.88-11.61-3.06
		c-13.32-4.75-27.93-3.5-41.41-0.1c-11.48,3.05-22.29,8.83-31.0099,16.92c-6.91,6.4-8.47,16.38-9.1,25.32
		c-0.74,7.24,3.86,13.37,7.92,18.86c-1.1201,1.35-1.55,3.98-3.7401,3.82c-8.95-0.07-18.04-2.12-25.77-6.7401
		c-8.38-4.6-16.44-11.81-18.35-21.59c-2.55-9.58-0.96-20.2,3.93-28.76c7.7401-9.83,16.64-19.24,27.71-25.31
		c9.52-5.18,20.56-6.05,31.15-7.04c-0.26-2.38-0.43-4.77-0.9-7.12c-6.26-0.84-12.52,0.87-18.79,0.34
		c-5.12-0.44-10.97-0.58-14.86-4.41c-4.79-4.64-4.72-12.39-1.89-18.04C772.77,539.63,777.89,537.6,782.26,535.16z"/>
	<path fill="#FBDCCE" stroke="#FBDCCE" stroke-width="0.2" d="M860.39,552.34c7.55-5.14,17.35-5.89,26.07-3.84
		c7.77,1.86,15.73,3.45,22.89,7.14c5.48,2.8,11.05,5.48,16.37,8.6c3.69,2.18,7.69,4.15,10.36,7.64
		c5.04,6.51,10.63,12.93,13.07,20.97c4.29,13.84,5.08,28.48,4.83,42.88c-1.63,5.08-4.67,9.51-6.96,14.28
		c-6.81,13.8-13.09,27.87-18.85,42.14c-0.63,1.33-1.33,2.68-2.4,3.72c-5.71-0.2-11.25-1.88-16.94-2.29
		c-8.03-0.64-16.08-0.96-24.11-1.62c-17.64-1.36-35.3199-4.36-51.8-10.96c-10.29-3.04-19.64-8.34-29.55-12.33
		c-4.74-2.15-8.31-6.09-11.84-9.78c-4.0601-5.49-8.66-11.62-7.92-18.86c0.63-8.94,2.19-18.92,9.1-25.32
		c8.72-8.09,19.53-13.87,31.0099-16.92c13.48-3.4,28.09-4.65,41.41,0.1c3.8,1.18,7.52,3.26,11.61,3.06
		c3.61-2.11,4.21-6.48,4.21-10.28c-7.14-0.55-14.26-2.36-20.29-6.33c-6.39-3.63-9.12-11.3701-9.21-18.3701
		C851.33,560,856.24,555.86,860.39,552.34z"/>
	<path fill="#A38F8F" stroke="#A38F8F" stroke-width="0.2" d="M418.18,574.21c11.12-2.52,22.48-3.92,33.87-4.39
		c19.99-0.65,40.22-0.28,59.79,4.29c6.25,1.55,12.49,3.63,17.92,7.19c3.47,2.41,6.94,6.1,6.25,10.7c-1.02,10.48-2.1,20.96-3.5,31.41
		c-1.65,21.33-6.84,42.17-12.27,62.8c-1.46,5.22-1.65,10.91-4.23,15.75c-4.45,2.46-9.61,3.11-14.47,4.4
		c-12.3,2.42-24.72,4.58-37.28,4.83c-10.39-0.88-20.82-2.24-30.7-5.72c-4.99-1.8799-10.49-2.3-15.24-4.74
		c-3.1-3.33-4.27-7.92-6.12-11.98c-6.76-17.53-10.1-36.11-13.47-54.53c-2.56-13.2599-5.16-26.6299-5.11-40.2
		c0.15-3.05,0.11-6.6,2.59-8.8C402.23,579.46,410.12,576.01,418.18,574.21 M436.21,572.42c-11.11,0.72-21.99,3.94-31.92,8.9
		c-2.95,1.29-4,4.4-4.3,7.36c4.36,3.14,9.22,5.54,14.43,6.89c21.67,5.94,44.37,5.91,66.66,5.29c12.92-0.97,25.97-2.29,38.33-6.38
		c4.15-1.52,8.64-3.2,11.4-6.84c0.86-1.84-0.71-3.42-2.11-4.36c-8.76-5.8101-19.27-7.86-29.44-9.6801
		c-12-1.8199-24.15-1.56-36.23-2.27C454.07,571.08,445.13,571.84,436.21,572.42z"/>
	<path fill="#5C5151" stroke="#5C5151" stroke-width="0.2" d="M436.21,572.42c8.92-0.58,17.86-1.34,26.82-1.09
		c12.08,0.71,24.23,0.45,36.23,2.27c10.17,1.82,20.68,3.87,29.44,9.6801c1.4,0.9399,2.97,2.52,2.11,4.36
		c-2.76,3.64-7.25,5.32-11.4,6.84c-12.36,4.09-25.41,5.41-38.33,6.38c-22.29,0.62-44.99,0.65-66.66-5.29
		c-5.21-1.35-10.07-3.75-14.43-6.89c0.3-2.96,1.35-6.07,4.3-7.36C414.22,576.36,425.1,573.14,436.21,572.42z"/>
	<path fill="#F02527" stroke="#F02527" stroke-width="0.2" d="M1052.9301,603.98c-0.14-2.76,0.4399-5.48,1.6699-7.94
		c-0.13,8.29-0.51,16.6-0.09,24.89C1052.16,615.57,1053.09,609.65,1052.9301,603.98z"/>
	<path fill="#F8C5B0" stroke="#F8C5B0" stroke-width="0.2" d="M383.72,645.72c4.8-4.09,10.23-7.3799,15.01-11.5
		c3.37,18.42,6.71,37,13.47,54.53c1.85,4.06,3.02,8.65,6.12,11.98c4.75,2.44,10.25,2.86,15.24,4.74c9.88,3.48,20.31,4.84,30.7,5.72
		c-4.91,1.56-9.92,3.02-14.39,5.64c-3.46,1.99-6.94,4-10.71,5.37c-9.9,3.52-19.54,7.86-29.84,10.2
		c-11.68-3.22-19.46-13.61-24.86-23.83c-5.35-11.33-8.94-23.37-12.92-35.21c-1.7-5.06-1.19-10.46-0.93-15.68
		C376.01,654.95,379.21,649.55,383.72,645.72z"/>
	<path fill="#FFFFFF" stroke="#FFFFFF" stroke-width="0.2" d="M953.98,635.73c3.32-0.5,6.75-0.7,10.05,0.17
		c9.3799,2.19,17.93,6.83,26.5099,11.06c-2.0099,2.58-4.17,5.08-5.72,7.98c-11.54,21.09-18.33,44.25-26.04,66.9
		c-0.55,1.81-1.94,3.15-3.17,4.52c-5.17-3.6-10.44-7.12-16.07-9.95c-2.33-1.2-4.82,0.19-6.97,1.1c-3.65,1.72-7.65,2.45-11.43,3.78
		c-4.73,1.44-9.25,3.64-14.19,4.3c-7.77-10.95-16.39-21.46-22.23-33.63c8.03,0.66,16.08,0.98,24.11,1.62
		c5.69,0.41,11.23,2.09,16.94,2.29c1.07-1.04,1.77-2.39,2.4-3.72c5.76-14.27,12.04-28.34,18.85-42.14
		C949.31,645.24,952.35,640.81,953.98,635.73z"/>
	<path fill="#FFFFFF" stroke="#FFFFFF" stroke-width="0.2" d="M358.93,662.01c3.68-1.96,7.67-3.2,11.68-4.33
		c-0.26,5.22-0.77,10.62,0.93,15.68c3.98,11.84,7.57,23.88,12.92,35.21c5.4,10.22,13.18,20.61,24.86,23.83
		c-4.58,1.67-8.91,3.91-13.26,6.1c-8.03-2.43-12.37-10.13-17.33-16.25c-7.88-13.01-15.11-26.57-19.82-41.09
		C357.08,674.92,357.8,668.31,358.93,662.01z"/>
	<path fill="#D28A79" stroke="#D28A79" stroke-width="0.2" d="M300,685.97c19.82-7.5099,39.83-14.6899,58.93-23.96
		c-1.13,6.3-1.85,12.91-0.02,19.15c4.71,14.52,11.94,28.08,19.82,41.09c4.96,6.12,9.3,13.82,17.33,16.25
		c-9.96,4.46-19.55,9.71-29.61,13.98c-8.68,3.64-16.29,9.32-24.9,13.12c-15.75-5.83-30.76-13.41-46.23-19.89
		c-7.47-3.27-14.56-7.32-21.53-11.53c-3.87-2.32-7.59-5.28-9.49-9.48c-2.88-6.21-4.88-12.78-6.83-19.32
		C270.81,697.24,285.55,691.78,300,685.97z"/>
	<path fill="#213858" stroke="#213858" stroke-width="0.2" d="M932.57,717.51c2.15-0.91,4.64-2.3,6.97-1.1
		c5.63,2.83,10.9,6.35,16.07,9.95c11.42,7.12,22.36,14.97,33.39,22.68c7.6,5.33,15.61,10.16,22.44,16.51
		c-9.63,6.03-19.59,13.04-31.37,13.41c-7.28,0.19-15.06,0.03-21.68-3.28c-19.61-13.9-36.66-31.18-51.44-50.09
		c4.94-0.66,9.46-2.86,14.19-4.3C924.92,719.96,928.92,719.23,932.57,717.51z"/>
	<path fill="#8DEDFA" stroke="#8DEDFA" stroke-width="0.2" d="M388.57,754.85c8.08-1.38,16.28-0.61,24.43-0.77
		c53.33,0,106.67,0,160,0c16.78,0.09,33.56-0.28,50.33,0.41c-3.86,0.36-7.72,0.83-11.59,1.02c-68.91-0.22-137.83-0.03-206.74-0.09
		C399.52,755.4,394.01,755.69,388.57,754.85z"/>
	<path fill="#302A25" stroke="#302A25" stroke-width="0.2" d="M383.66,756.65c0.97-1.78,3.19-1.56,4.91-1.8
		c5.44,0.84,10.95,0.55,16.43,0.57c68.91,0.06,137.83-0.13,206.74,0.09c27.75,0.64,55.51,0.17,83.26,0.31
		c65.64-0.02,131.28-0.01,196.92,0.2c5.68,7.1,10.66,14.72,15.95,22.12c22.96,32.31,45.67,64.81,68.69,97.07
		c23.35,33.35,46.99,66.5099,70.42,99.81c4.5601,6.62,9.65,12.9,13.51,19.98h-845c17.83-25.66,36.06-51.04,53.99-76.63
		c11.78-16.54,23.41-33.18,35.19-49.72c3.61-4.86,6.45-10.41,11.22-14.28c18,3.28,35.93,7.14,54.12,9.32
		c6,0.38,11.87,1.99,17.87,2.29c2.45,0.36,3.06-2.54,4.15-4.12c12.2,5.34,25.33,7.81,38.25,10.73c4.51,1.05,9.13,1.48,13.74,1.9
		c-7.58,10.29-13.23,21.81-19.84,32.71c-6.8,12.22-14.27,24.07-20.77,36.45c7.57,0.42,15.13-0.44,22.7-0.23
		c-0.63,5.23-1.19,10.47-1.55,15.74c1.67-0.16,3.34-0.3,5.01-0.48c9.9-0.03,19.8-0.5,29.7-0.72c13.79-0.12,27.58-0.66,41.37-1.21
		c9.87-0.15,19.75-0.53,29.63-0.78c13.93,0.08,27.84-1.12,41.78-0.96c3.27-0.02,6.49,0.62,9.72,1.15
		c47.29,6.88,94.52,14.16,141.85,20.76c0.52-1.78,1.05-3.55,1.61-5.3c4.7,1.37,9.31,3.03,13.91,4.71c3.02-8.53,5.08-17.4,8.46-25.79
		c1.62-1.5,4.48-0.2599,6.58-0.62c-1.15-3.37-2.41-6.71-3.68-10.02c2.13-0.05,4.29-0.03,6.44-0.11l0.47-0.7599
		c-1.41-5.8101-4.18-11.36-4.34-17.41c2.45-9.84,3.53-19.94,5.51-29.87c4.06-23.95,8.28-47.86,12.3-71.81
		c-3.21-1.83-6.42-3.68-9.57-5.6c0.37-2.14,0.58-4.3,0.83-6.44c-16.21-5.39-32.61-10.2-48.73-15.85c-2.62-3.48-3.09-8.03-4.43-12.07
		c-33.21,0.05-66.41,0-99.62,0.03c-7.35-1.74-14.9-0.81-22.36-0.97c-21.33-0.05-42.67,0.05-64-0.05c-5.15-0.19-10.31,0.1-15.4,0.91
		c-5.34-0.32-10.65-0.97-15.98-1.37c0.65-0.29,1.96-0.86,2.61-1.14c-9.07-0.64-18.16-0.24-27.24-0.33
		c-8.41,0.12-16.83-0.31-25.23,0.33c0.43,0.27,1.28,0.81,1.71,1.08c-11.62,1.77-22.93,5.02-34.45,7.2401
		c-5.03-1.07-9.87-2.84-14.9-3.9c-7.81-1.94-15.63-3.88-23.25-6.5C375.09,769.06,379.32,762.81,383.66,756.65z"/>
	<path fill="#131310" stroke="#131310" stroke-width="0.2" d="M441.76,777.39c8.4-0.64,16.82-0.21,25.23-0.33
		c9.08,0.09,18.17-0.31,27.24,0.33c-0.65,0.28-1.96,0.85-2.61,1.14c-5.54-0.1201-11.08-0.07-16.62-0.07
		c-10.51,0.17-21.03-0.85-31.53,0.0099C443.04,778.2,442.19,777.66,441.76,777.39z"/>
	<path fill="#F8C5B0" stroke="#F8C5B0" stroke-width="0.2" d="M443.47,778.47c10.5-0.86,21.02,0.16,31.53-0.0099
		c5.54,0,11.08-0.05,16.62,0.07c5.33,0.4,10.64,1.05,15.98,1.37c0.51,0.05,1.51,0.17,2.02,0.23c15.36,3.64,31.04,6.42,45.65,12.65
		c14.12,6.05,27.39,13.8799,40.38,22.04c7.8,4.52,15.3199,12.33,14.52,22.04c-2.38,1.78-4.73,3.59-7.3,5.08
		c-10.67,2.55-21.27-1.53-30.84-5.91l-0.82-0.3101c-7.16-3.03-14.65-5.11-21.96-7.71c-1.03-0.1-2.06-0.14-3.07-0.17
		c0.07-0.41,0.21-1.22,0.29-1.63c-3.03-0.58-6.05-1.19-9.06-1.82c-1.17-0.26-2.33-0.5-3.48-0.75c-1.64-0.37-3.27-0.73-4.89-1.08
		c-6.37,14.76-14.91,29.18-28.15,38.79c-4.89,3.78-10.24,6.96-15.94,9.36c-13.1,4.53-27.22,5.64-40.93,3.78
		c-4.61-0.42-9.23-0.85-13.74-1.9c-12.92-2.92-26.05-5.39-38.25-10.73c4.29-9.63,7.74-19.6,11.25-29.53
		c4.79-14.99,6.89-30.91,5.74-46.62C420.54,783.49,431.85,780.24,443.47,778.47z"/>
	<path fill="#140E09" stroke="#140E09" stroke-width="0.2" d="M507.6,779.9c5.09-0.81,10.25-1.1,15.4-0.91
		c21.33,0.1,42.67,0,64,0.05c7.46,0.16,15.01-0.77,22.36,0.97c-33.24,0.37-66.5,0.12-99.74,0.12
		C509.11,780.07,508.11,779.95,507.6,779.9z"/>
	<path fill="#FFFFFF" stroke="#FFFFFF" stroke-width="0.2" d="M509.62,780.13c33.24,0,66.5,0.25,99.74-0.12
		c33.21-0.03,66.41,0.02,99.62-0.03c1.34,4.04,1.81,8.59,4.43,12.07c0.79,5.75,2.48,11.32,4.36,16.79
		c4.7,16.15,9.96,32.1299,14.67,48.28c3.2,10.2,6.05,20.51,9.84,30.51c1.04,2.88,2,5.79,2.7599,8.76
		c1.84,8.64,4.17,17.25,8.03,25.23c0.16,6.05,2.93,11.6,4.34,17.41c-23.09,1.67-46.2599,0.37-69.37,1.62
		c-30.67,0.15-61.34,0.4-92.0099,0.78c-28.66,0.95-57.36,0-86.01,1.23c-27.97,0.13-55.94,0.31-83.91,0.76
		c-7.57-0.21-15.13,0.65-22.7,0.23c6.5-12.38,13.97-24.23,20.77-36.45c6.61-10.9,12.26-22.42,19.84-32.71
		c13.71,1.86,27.83,0.75,40.93-3.78c-1.1,2.89-2.32,5.73-3.82,8.44c-6.09,11.03-11.67,22.33-17.61,33.44
		c-1.23,2.5099-2.66,5.16-2.43,8.06c1.21,2.03,3.88,1.3199,5.87,1.56c15.37-0.29,30.76-0.26,46.14-0.85
		c15.95-0.56,31.9301-0.1,47.88-0.96c6.22-0.36,12.54,0.43,18.69-0.81c1.92-16.78,0.81-33.76,1.45-50.6201
		c-0.28-2.22,0.6-5.24-1.45-6.77c-3.18-0.65-6.45-0.43-9.67-0.43c-16.34,0.29-32.67-0.23-49-0.13c-6.7,0.04-13.41,0.14-20.11-0.29
		c13.24-9.61,21.78-24.03,28.15-38.79c1.62,0.35,3.25,0.71,4.89,1.08c-0.94,8.85-4.24,17.23-5.13,26.09
		c0.72-0.02,2.16-0.06,2.88-0.08c1.94-8.42,4.12-16.77,5.73-25.26c3.01,0.63,6.03,1.24,9.06,1.82c-0.08,0.41-0.22,1.22-0.29,1.63
		c-1.23,7.08-1.98,14.24-2.51,21.4c0.75-0.07,2.25-0.21,2.99-0.28c0.66-7.01,1.46-14,2.59-20.95c7.31,2.6,14.8,4.68,21.96,7.71
		c-0.48,0.1201-1.44,0.38-1.92,0.5c0.2,5.33,1.26,10.57,1.9,15.86c0.76,0.06,2.28,0.18,3.04,0.24c-0.51-5.47-1.3-10.89-2.2-16.29
		c9.5699,4.3799,20.17,8.46,30.84,5.91c4.32,3.15,8.51,6.57,13.4,8.83c14.4,6.87,31.04,7.93,46.6,5.2
		c11.87-2.3799,23.8-7.58,31.55-17.22c2.45-2.92,4.17-6.34,5.72-9.79c3.53,2.16,7.27,3.98,11.27,5.14c0.08-0.73,0.25-2.21,0.34-2.95
		c-3.67-1.95-7.3-3.97-10.93-5.9901c1.53-13.24-8.14-24.61-19.24-30.37c-13.9-7.82-30.48-9.33-46.07-7.32
		c-10.87,1.79-21.98,5.45-30.13,13.17c-7.12-2.26-14.02-5.2-21.29-6.96c-0.03,0.8-0.08,2.41-0.1,3.22
		c6.01,2.0699,11.98,4.27,18.01,6.3c-2.76,3.48-5.33,7.23-6.35,11.62c-12.9901-8.16-26.26-15.99-40.38-22.04
		C540.66,786.55,524.98,783.77,509.62,780.13 M574.05,785.19c-1.01,4.01,0.3,8.15,0.8,12.16c0.73-0.14,2.2-0.43,2.94-0.5699
		c-0.57-3.8701-0.57-7.89-1.91-11.59C575.42,785.19,574.51,785.19,574.05,785.19 M714.2,837.3c-1.07,3.82-0.78,7.85-1.03,11.78
		c0.71,0.04,2.12,0.11,2.82,0.15c0.3-4.25,0.66-8.5,0.42-12.76C715.85,836.68,714.75,837.09,714.2,837.3 M697.81,860.24
		c-0.86,14.56,0.39,29.18,0.14,43.77c0.34,2.52-0.64,5.77,1.43,7.72c5.24,0.55,10.32-1.44,15.45-2.21c0.24-2.17,0.46-4.35,0.35-6.51
		c-1.17-12.7-2.42-25.39-3.39-38.1c-0.27-1.7-0.28-3.84-1.94-4.81C705.85,859.52,701.8,859.97,697.81,860.24 M676.17,863.81
		c-0.08,17.59-0.65,35.18-0.77,52.76c1.83,0.12,3.67,0.25,5.52,0.4c0.52-9.64,0.17-19.3,0.88-28.93c0.06-8.14-0.05-16.31,1.37-24.36
		C680.83,863.48,678.49,863.53,676.17,863.81 M615.12,864c-1.51,1.82-1.33,4.39-1.67,6.61c-1.02,15.22-2.83,30.38-3.58,45.62
		c1.98-0.04,3.98-0.06,5.98-0.08c1.35-17.4901,2.88-34.95,4.45-52.42C618.56,863.77,616.83,863.78,615.12,864 M656.91,863.91
		c1.9901,15.98,1.6201,32.13,3.04,48.15c1.76-0.01,3.51-0.01,5.28,0c0.53-7.95-0.31-15.9-0.66-23.84c-0.68-8.06-0.19-16.2-1.46-24.2
		C661.03,863.96,658.97,863.93,656.91,863.91 M638.79,866.99c-1.29,8.34-0.59,16.81-1.47,25.19c-0.39,9.11-0.69,18.23-0.94,27.34
		c1.83,0.09,3.66,0.2,5.49,0.31c0.65-7.6,1.16-15.21,1.22-22.83c0.37-10.03,1.22-20.03,1.1299-30.07
		C642.4,866.94,640.59,866.96,638.79,866.99z"/>
	<path fill="#FFFFFF" stroke="#FFFFFF" stroke-width="0.2" d="M394.12,781.81c5.03,1.06,9.87,2.83,14.9,3.9
		c1.15,15.71-0.95,31.63-5.74,46.62c-3.51,9.93-6.96,19.9-11.25,29.53c-1.09,1.58-1.7,4.48-4.15,4.12c-6-0.3-11.87-1.91-17.87-2.29
		c7.08-6.48,10.71-15.55,14.55-24.12c5.13-12.34,10.67-24.95,11.16-38.51C396.3,794.58,394.72,788.22,394.12,781.81z"/>
	<path fill="#959595" stroke="#959595" stroke-width="0.2" d="M574.05,785.19c0.46,0,1.37,0,1.83,0c1.34,3.7,1.34,7.72,1.91,11.59
		c-0.74,0.14-2.21,0.43-2.94,0.5699C574.35,793.34,573.04,789.2,574.05,785.19z"/>
	<path fill="#2DA1E9" stroke="#2DA1E9" stroke-width="0.2" d="M635.51,787.47c15.59-2.0099,32.17-0.5,46.07,7.32
		c-4.24,3.44-8.72,6.56-13.39,9.38c-6.13,3.65-11.77,8.06-18.05,11.45c14.73,7.75,29.55,15.35,44.28,23.13
		c-7.75,9.64-19.68,14.84-31.55,17.22c-15.56,2.73-32.2,1.67-46.6-5.2c-4.89-2.26-9.08-5.68-13.4-8.83c2.57-1.49,4.92-3.3,7.3-5.08
		c0.8-9.71-6.72-17.52-14.52-22.04c1.02-4.39,3.59-8.14,6.35-11.62c8.91,2.9,17.54,6.68,26.66,8.92c0.03-0.74,0.1-2.22,0.13-2.95
		c-7.79-2.87-15.66-5.54-23.41-8.53C613.53,792.92,624.64,789.26,635.51,787.47z"/>
	<path fill="#C3C3C3" stroke="#C3C3C3" stroke-width="0.2" d="M713.41,792.05c16.1201,5.65,32.52,10.46,48.73,15.85
		c-0.25,2.14-0.46,4.3-0.83,6.44c-3.64,12.0699-5.32,24.62-8.02,36.92c-3.41,14.92-4.68,30.25-8.25,45.13
		c-0.7599-2.97-1.72-5.88-2.7599-8.76c-3.79-10-6.64-20.31-9.84-30.51c4.28-13.48,7.4-27.35,9.85-41.27
		c-7.86-3.37-16.25-5.28-24.25-8.24c-0.07,0.31-0.2,0.92-0.27,1.23C715.89,803.37,714.2,797.8,713.41,792.05z"/>
	<path fill="#9F9B97" stroke="#9F9B97" stroke-width="0.2" d="M584.09,793.68c7.27,1.76,14.17,4.7,21.29,6.96
		c7.75,2.99,15.62,5.66,23.41,8.53c-0.03,0.73-0.1,2.21-0.13,2.95c-9.12-2.24-17.75-6.02-26.66-8.92c-6.03-2.03-12-4.23-18.01-6.3
		C584.01,796.09,584.06,794.48,584.09,793.68z"/>
	<path fill="#FB4350" stroke="#FB4350" stroke-width="0.2" d="M681.58,794.79c11.1,5.76,20.77,17.13,19.24,30.37
		c-4.36-2.5-8.77-4.98-13.57-6.53c-0.05,0.8-0.15,2.4-0.21,3.2c4.42,2.27,8.78,4.66,13.1,7.13c-1.55,3.45-3.27,6.87-5.72,9.79
		c-14.73-7.78-29.55-15.38-44.28-23.13c6.28-3.39,11.92-7.8,18.05-11.45C672.86,801.35,677.34,798.23,681.58,794.79z"/>
	<path fill="#818181" stroke="#818181" stroke-width="0.2" d="M718.04,807.61c8,2.96,16.39,4.87,24.25,8.24
		c-2.45,13.92-5.57,27.79-9.85,41.27c-4.71-16.15-9.97-32.13-14.67-48.28C717.84,808.53,717.97,807.92,718.04,807.61z"/>
	<path fill="#DADADA" stroke="#DADADA" stroke-width="0.2" d="M753.29,851.26c2.7-12.3,4.38-24.85,8.02-36.92
		c3.15,1.92,6.36,3.77,9.57,5.6c-4.02,23.95-8.24,47.86-12.3,71.81c-1.98,9.93-3.06,20.03-5.51,29.87
		c-3.86-7.98-6.19-16.59-8.03-25.23C748.61,881.51,749.88,866.18,753.29,851.26z"/>
	<path fill="#999C9B" stroke="#999C9B" stroke-width="0.2" d="M687.25,818.63c4.8,1.55,9.21,4.03,13.57,6.53
		c3.63,2.02,7.26,4.04,10.93,5.9901c-0.09,0.74-0.26,2.22-0.34,2.95c-4-1.16-7.74-2.98-11.27-5.14c-4.32-2.47-8.68-4.86-13.1-7.13
		C687.1,821.03,687.2,819.43,687.25,818.63z"/>
	<path fill="#969696" stroke="#969696" stroke-width="0.2" d="M533.93,823.64c1.15,0.25,2.31,0.49,3.48,0.75
		c-1.61,8.49-3.79,16.84-5.73,25.26c-0.72,0.02-2.16,0.06-2.88,0.08C529.69,840.87,532.99,832.49,533.93,823.64z"/>
	<path fill="#959595" stroke="#959595" stroke-width="0.2" d="M546.18,827.84c1.01,0.03,2.04,0.0699,3.07,0.17
		c-1.13,6.95-1.93,13.94-2.59,20.95c-0.74,0.07-2.24,0.21-2.99,0.28C544.2,842.08,544.95,834.92,546.18,827.84z"/>
	<path fill="#939393" stroke="#939393" stroke-width="0.2" d="M569.29,836.22c0.48-0.12,1.44-0.3799,1.92-0.5l0.82,0.3101
		c0.9,5.4,1.6899,10.8199,2.2,16.29c-0.76-0.06-2.28-0.18-3.04-0.24C570.55,846.79,569.49,841.55,569.29,836.22z"/>
	<path fill="#909090" stroke="#909090" stroke-width="0.2" d="M714.2,837.3c0.55-0.21,1.65-0.62,2.21-0.83
		c0.2401,4.26-0.12,8.51-0.42,12.76c-0.7-0.04-2.11-0.11-2.82-0.15C713.42,845.15,713.13,841.12,714.2,837.3z"/>
	<path fill="#A7A7A7" stroke="#A7A7A7" stroke-width="0.2" d="M697.81,860.24c3.99-0.27,8.04-0.72,12.04-0.14
		c1.66,0.97,1.67,3.11,1.94,4.81c0.97,12.71,2.22,25.4,3.39,38.1c0.11,2.16-0.11,4.34-0.35,6.51c-5.13,0.77-10.21,2.76-15.45,2.21
		c-2.07-1.95-1.09-5.2-1.43-7.72C698.2,889.42,696.95,874.8,697.81,860.24z"/>
	<path fill="#DADADA" stroke="#DADADA" stroke-width="0.2" d="M484.95,870.71c5.7-2.4,11.05-5.58,15.94-9.36
		c6.7,0.4301,13.41,0.33,20.11,0.29c16.33-0.1,32.66,0.42,49,0.13c3.22,0,6.49-0.22,9.67,0.43c2.05,1.53,1.17,4.55,1.45,6.77
		c-0.64,16.86,0.47,33.84-1.45,50.6201c-6.15,1.24-12.47,0.45-18.69,0.81c-15.95,0.86-31.93,0.4-47.88,0.96
		c-15.38,0.59-30.77,0.56-46.14,0.85c-1.99-0.2401-4.66,0.47-5.87-1.56c-0.23-2.9,1.2-5.55,2.43-8.06
		c5.94-11.11,11.52-22.41,17.61-33.44C482.63,876.44,483.85,873.6,484.95,870.71z"/>
	<path fill="#DADADA" stroke="#DADADA" stroke-width="0.2" d="M676.17,863.81c2.32-0.28,4.66-0.33,7-0.13
		c-1.42,8.05-1.31,16.22-1.37,24.36c-0.71,9.63-0.36,19.29-0.88,28.93c-1.85-0.15-3.69-0.28-5.52-0.4
		C675.52,898.99,676.09,881.4,676.17,863.81z"/>
	<path fill="#DADADA" stroke="#DADADA" stroke-width="0.2" d="M615.12,864c1.71-0.22,3.44-0.23,5.18-0.27
		c-1.57,17.47-3.1,34.93-4.45,52.42c-2,0.02-4,0.04-5.98,0.08c0.75-15.24,2.56-30.4,3.58-45.62
		C613.79,868.39,613.61,865.82,615.12,864z"/>
	<path fill="#D9DADA" stroke="#D9DADA" stroke-width="0.2" d="M656.91,863.91c2.06,0.02,4.1201,0.05,6.2,0.11
		c1.27,8,0.78,16.14,1.46,24.2c0.35,7.94,1.19,15.89,0.66,23.84c-1.77-0.01-3.52-0.01-5.28,0
		C658.53,896.04,658.9,879.89,656.91,863.91z"/>
	<path fill="#DADADA" stroke="#DADADA" stroke-width="0.2" d="M638.79,866.99c1.8-0.03,3.61-0.05,5.43-0.06
		c0.09,10.04-0.7599,20.04-1.1299,30.07c-0.06,7.62-0.57,15.23-1.22,22.83c-1.83-0.11-3.66-0.22-5.49-0.31
		c0.25-9.11,0.55-18.23,0.94-27.34C638.2,883.8,637.5,875.33,638.79,866.99z"/>
	<path fill="#D9D9D9" stroke="#D9D9D9" stroke-width="0.2" d="M688.04,940.65c23.11-1.25,46.28,0.05,69.37-1.62l-0.47,0.7599
		c-2.15,0.08-4.31,0.06-6.44,0.11c1.27,3.31,2.53,6.65,3.68,10.02c-2.1,0.36-4.96-0.88-6.58,0.62c-3.38,8.39-5.44,17.26-8.46,25.79
		c-4.6-1.68-9.21-3.34-13.91-4.71c1.96-7.12,4.87-13.9,7.42-20.81c-11.55-0.78-23.12,0.32-34.6801,0.29
		c-16.09,1.2401-32.24,0.6-48.35,1.5c-11.95,0.6801-23.92,0.2401-35.87,0.98c-9.7,0.65-19.43,0.18-29.14,0.57
		c-0.07,0.5099-0.21,1.54-0.29,2.06c-0.64-0.01-1.91-0.04-2.55-0.05c-3.23-0.53-6.45-1.17-9.72-1.15
		c-13.94-0.16-27.85,1.04-41.78,0.96c-7.08-0.93-14.22-0.67-21.34-0.73c-2.85-0.08-5.6,0.69-8.29,1.51
		c-13.79,0.55-27.58,1.09-41.37,1.21c-7.41-0.97-14.89-0.59-22.33-0.73c-2.55-0.11-4.99,0.66-7.37,1.45
		c-1.67,0.18-3.34,0.32-5.01,0.48c0.36-5.27,0.92-10.5099,1.55-15.74c27.97-0.45,55.94-0.63,83.91-0.76
		c28.65-1.23,57.35-0.28,86.01-1.23C626.7,941.05,657.37,940.8,688.04,940.65z"/>
	<path fill="#C3C3C3" stroke="#C3C3C3" stroke-width="0.2" d="M697.97,951.1c11.5601,0.03,23.13-1.0699,34.6801-0.29
		c-2.55,6.91-5.46,13.69-7.42,20.81c-0.56,1.75-1.09,3.52-1.61,5.3c-47.33-6.6-94.56-13.88-141.85-20.76
		c0.64,0.01,1.91,0.04,2.55,0.05c0.08-0.52,0.22-1.55,0.29-2.06c9.71-0.39,19.44,0.08,29.14-0.57c11.95-0.74,23.92-0.3,35.87-0.98
		C665.73,951.7,681.88,952.34,697.97,951.1z"/>
	<path fill="#FFFFFF" stroke="#FFFFFF" stroke-width="0.2" d="M500.64,956.75c2.69-0.82,5.44-1.59,8.29-1.51
		c7.12,0.06,14.26-0.2,21.34,0.73C520.39,956.22,510.51,956.6,500.64,956.75z"/>
	<path fill="#FFFFFF" stroke="#FFFFFF" stroke-width="0.2" d="M429.57,958.68c2.38-0.79,4.82-1.56,7.37-1.45
		c7.44,0.14,14.92-0.24,22.33,0.73C449.37,958.18,439.47,958.65,429.57,958.68z"/>
</g>
</svg>
